<svg width="62" height="29" viewBox="0 0 62 29" fill="none" xmlns="http://www.w3.org/2000/svg">
<path d="M23.7062 11.5956C31.1535 16.2441 32.3327 16.0442 38.5229 11.9166C46.4977 6.60893 50.8547 13.6594 56.3495 14.4124C59.2404 14.8049 61.7739 13.1435 61.7739 13.1435C55.8633 24.0402 47.604 18.8165 40.9275 15.6319C34.623 12.6349 30.407 21.3691 23.7378 20.236C23.5385 20.1915 23.4193 20.389 23.5676 20.4803C31.4501 25.3979 34.7178 22.9416 38.112 20.6803C46.3154 15.2246 50.969 22.5713 56.2572 23.2971C59.1456 23.6945 61.6864 22.0307 61.6864 22.0307C54.9272 34.4875 46.2886 26.7878 42.6926 25.1017C39.8504 23.776 38.3186 22.1097 31.9412 25.2399C26.371 27.9851 18.9943 30.2612 12.2327 28.1974C12.2327 28.1974 12.2059 28.19 12.1768 28.1727C12.9572 25.9805 14.168 23.1021 16.259 23.1342C16.8693 23.1366 20.2075 23.3613 20.5552 23.307C20.9564 23.2527 21.219 22.9614 21.2895 22.6454C21.4524 21.9097 21.1557 21.7394 21.1241 21.5024C21.095 21.2679 21.3259 21.1913 21.518 21.0333C21.8341 20.7766 21.8633 20.584 21.7928 20.3668C21.732 20.1792 21.3065 20.1199 21.1655 20.0385C21.0244 19.9545 21.0634 19.7101 21.2895 19.6805C22.4298 19.5274 22.369 18.9127 22.2377 18.6955C21.7709 17.8364 22.4978 17.6858 22.7653 17.6192C23.1276 17.5328 23.7816 17.2785 23.592 16.6317C23.3634 15.8541 23.1397 15.2789 22.9841 14.6123C22.7313 13.5385 22.4662 12.593 22.7167 11.9758C23.0449 11.1636 23.3877 11.3932 23.7014 11.5907M56.5611 5.14502C49.8092 4.21927 46.1233 -1.58703 38.9192 3.20712C34.533 6.13001 32.887 8.57893 24.2071 3.16021C19.8696 0.452088 17.285 0.192879 14.8172 0.0299469C7.01744 -0.483535 0.389579 5.66837 0.0175822 13.7039C-0.181789 18.0216 1.32079 21.8455 4.1995 24.5808C4.54962 24.8746 4.94107 24.8104 5.12585 24.4524L5.20608 24.2549L9.66032 13.3755C9.66032 13.3755 12.0746 6.9817 18.029 8.98132C19.9449 9.61823 21.5277 10.2453 22.9501 10.6847C26.3491 11.7438 28.8388 11.7635 32.7654 8.59621C34.5525 7.15451 37.5041 5.13761 41.3335 6.93233C46.6874 9.43061 55.625 15.6245 62 3.88847C62 3.88847 59.4519 5.54741 56.5659 5.15242L56.5611 5.14502Z" fill="black"/>
</svg>
